<svg id="Layer_1" data-name="Layer 1" xmlns="http://www.w3.org/2000/svg" viewBox="0 0 1205.12 120"><title>logo</title><path d="M18.34,674.8L-0.57,720.44H16.7l12.13-29.89h49l12.29,29.89h17.26L88.45,674.8H18.34Zm29.24-70.59L24.89,659H42l11.37-27.37L64.76,659H81.9L59.2,604.21H47.58Z" transform="translate(0.57 -603.76)" fill="#fd501e"/><path d="M873,720.44h16.61V635.79H873v84.65ZM841.42,620h79.71V604.2H841.42V620Z" transform="translate(0.57 -603.76)" fill="#fd501e"/><path d="M281.94,671.89H265.22c3.6,29.9,27.33,51.87,57.59,51.87s54-22,57.59-51.87H363.68C360.38,693,344,708,322.81,708s-37.57-15-40.87-36.1m81.73-15.82H380.4c-3.6-29.9-27.33-51.87-57.59-51.87s-54,22-57.59,51.87h16.73c3.31-21,19.69-36.09,40.86-36.09s37.55,15.06,40.86,36.09" transform="translate(0.57 -603.76)" fill="#fd501e"/><path d="M1006.33,604.2L1052,720.44h11.62l2.71-6.89-8.51-21.68h0l-0.56-1.45-33.87-86.23h-17Zm85.68,0L1066.32,670l8.51,21.83,34.44-87.67H1092Z" transform="translate(0.57 -603.76)" fill="#fd501e"/><path d="M1136.47,649.87v70.57h68.08V704.67h-51.47v-39h38.19V649.87h-54.8Zm0-45.67v29.85h16.61V620h49.81V604.2h-66.42Z" transform="translate(0.57 -603.76)" fill="#fd501e"/><path d="M150.08,671.89H133.34c3.61,30.28,27.78,51.87,59.76,51.87,17.93,0,35.2-8.8,45.17-21.59l-11.8-10.62C220,699.35,208.71,708,193.1,708c-22.16,0-39.61-14.27-43-36.1M223,633.1l11.13-11C224,611,208.21,604.2,191.6,604.2c-30.85,0-54.62,22.22-58.25,51.87H150.1c3.43-21,20.34-36.09,41.5-36.09,12.45,0,24.58,5.64,31.38,13.11" transform="translate(0.57 -603.76)" fill="#fd501e"/><path d="M723.48,671.89H706.75c3.61,30.28,27.78,51.87,59.76,51.87,17.93,0,35.2-8.8,45.17-21.59l-11.8-10.62C793.4,699.35,782.11,708,766.5,708c-22.16,0-39.61-14.27-43-36.1m72.91-38.79,11.13-11C797.39,611,781.61,604.2,765,604.2c-30.85,0-54.62,22.22-58.25,51.87H723.5C726.93,635,743.84,620,765,620c12.45,0,24.58,5.64,31.38,13.11" transform="translate(0.57 -603.76)" fill="#fd501e"/><path d="M957.28,720.44h16.61V668.58H957.28v51.87Zm0-67.68h16.61V604.21H957.28v48.55Z" transform="translate(0.57 -603.76)" fill="#fd501e"/><path d="M608.92,649.43V720H677V704.23H625.52v-39h38.19V649.43h-54.8Zm0-45.67v29.85h16.61V619.54h49.81V603.76H608.92Z" transform="translate(0.57 -603.76)" fill="#fd501e"/><path d="M439.26,720.44h35.67V704.67H439.26v15.77Zm-32.41,0h16.59V604.2H406.85V720.44Z" transform="translate(0.57 -603.76)" fill="#fd501e"/><path d="M539.65,720.44h35.67V704.67H539.65v15.77Zm-32.41,0h16.59V604.2H507.24V720.44Z" transform="translate(0.57 -603.76)" fill="#fd501e"/></svg>