<svg id="Layer_1" data-name="Layer 1" xmlns="http://www.w3.org/2000/svg" viewBox="0 0 282.98 82.56"><title>block-of-writers</title><polygon points="13.98 7.52 16.92 14.62 21.36 14.62 15.48 0.43 12.47 0.43 6.59 14.62 11.03 14.62 13.98 7.52" fill="#fff"/><polygon points="9.33 18.7 4.9 18.7 0 30.53 4.47 30.53 7.61 22.79 20.3 22.79 23.48 30.53 27.95 30.53 23.05 18.7 18.62 18.7 9.33 18.7" fill="#fff"/><polygon points="57.4 26.44 57.4 16.34 57.4 12.25 57.4 4.51 57.4 0.43 53.1 0.43 53.1 30.53 57.4 30.53 57.4 26.44" fill="#fff"/><path d="M342,260.87c2.41,0,3.44.47,4.13,1.25a3.85,3.85,0,0,1,0,5.25c-0.69.77-1.72,1.25-4.13,1.25h-1.08v4.08h2.45c2.71,0,4,.6,4.95,1.55a5,5,0,0,1,1.42,3.48,5.13,5.13,0,0,1-1.42,3.53c-0.95.95-2.24,1.55-4.95,1.55h-2.45v4.08h3.23a9.62,9.62,0,0,0,6.58-2A8.88,8.88,0,0,0,349.11,270a7.51,7.51,0,0,0,2.37-5.37A7.76,7.76,0,0,0,349,258.9a8.57,8.57,0,0,0-6.19-2.11h-1.85v4.08H342Z" transform="translate(-279.46 -256.36)" fill="#fff"/><rect x="92.29" y="26.44" width="9.3" height="4.08" fill="#fff"/><polygon points="88.26 22.91 88.26 0.43 83.96 0.43 83.96 30.53 88.2 30.53 88.2 22.91 88.26 22.91" fill="#fff"/><path d="M401.14,260.45a10.6,10.6,0,0,1,10.49,8.81H416a15,15,0,0,0-29.67,0h4.35A10.6,10.6,0,0,1,401.14,260.45Z" transform="translate(-279.46 -256.36)" fill="#fff"/><path d="M401.14,283.23c-5.67,0-10-4.13-10.66-9.9h-4.32a15,15,0,0,0,30,0H411.8C411.15,279.1,406.81,283.23,401.14,283.23Z" transform="translate(-279.46 -256.36)" fill="#fff"/><path d="M438.77,260.45a11.42,11.42,0,0,1,8.13,3.4l2.88-2.84a15.24,15.24,0,0,0-26,8.25h4.36A10.8,10.8,0,0,1,438.77,260.45Z" transform="translate(-279.46 -256.36)" fill="#fff"/><path d="M450.85,281.73L447.8,279a11.27,11.27,0,0,1-8.64,4.26,10.88,10.88,0,0,1-11.22-9.9h-4.32c0.7,8.13,7.07,14,15.54,14A15.17,15.17,0,0,0,450.85,281.73Z" transform="translate(-279.46 -256.36)" fill="#fff"/><polygon points="197.26 30.53 202.77 30.53 188.32 14.4 201.91 0.43 196.23 0.43 187.93 8.93 187.93 20.06 197.26 30.53" fill="#fff"/><polygon points="183.85 13.11 183.85 0.43 179.55 0.43 179.55 30.53 183.85 30.53 183.85 15.48 183.85 13.11" fill="#fff"/><path d="M520.71,283.23a10.61,10.61,0,0,1-10.58-9.35h-4.33a15,15,0,0,0,29.83,0h-4.33A10.61,10.61,0,0,1,520.71,283.23Z" transform="translate(-279.46 -256.36)" fill="#fff"/><path d="M520.71,260.45a10.64,10.64,0,0,1,10.58,9.35h4.33a15,15,0,0,0-29.83,0h4.33A10.64,10.64,0,0,1,520.71,260.45Z" transform="translate(-279.46 -256.36)" fill="#fff"/><rect x="274.17" y="0.43" width="8.81" height="4.08" fill="#fff"/><polygon points="270.08 12.25 270.08 4.51 270.08 0.43 265.78 0.43 265.78 30.53 270.08 30.53 270.08 16.34 270.08 12.25" fill="#fff"/><rect x="274.17" y="12.25" width="5.8" height="4.08" fill="#fff"/><polygon points="54.6 73.83 61.95 52.03 54.59 73.81 54.6 73.83" fill="#fff"/><polygon points="47.85 52.03 43.46 52.03 50.3 73.77 52.53 67.15 47.85 52.03" fill="#fff"/><polygon points="72.31 73.83 64.96 52.03 61.95 52.03 54.6 73.83 54.59 73.81 52.37 80.38 52.92 82.13 55.93 82.13 63.46 59.85 70.98 82.13 73.99 82.13 83.45 52.03 79.07 52.03 72.31 73.83" fill="#fff"/><path d="M387.28,322.54a7.94,7.94,0,0,0,0-12.38,8.63,8.63,0,0,0-5.85-1.76H370.9v30.1h4.3v-26h6c1.93,0,2.92.43,3.61,1.12a3.95,3.95,0,0,1,0,5.5c-0.69.69-1.68,1.12-3.61,1.12h-1.94v4.94l10.06,13.34h5.2l-10.79-14.36A7.23,7.23,0,0,0,387.28,322.54Z" transform="translate(-279.46 -256.36)" fill="#fff"/><rect x="122.84" y="69.12" width="4.3" height="13.01" fill="#fff"/><rect x="122.84" y="52.03" width="4.3" height="13.01" fill="#fff"/><rect x="143.29" y="60.2" width="4.3" height="21.93" fill="#fff"/><polygon points="147.59 56.11 155.76 56.11 155.76 52.03 135.12 52.03 135.12 56.11 143.29 56.11 147.59 56.11" fill="#fff"/><rect x="172.17" y="63.85" width="5.8" height="4.08" fill="#fff"/><rect x="172.17" y="52.03" width="8.82" height="4.08" fill="#fff"/><polygon points="168.09 67.94 168.09 63.85 168.09 56.11 168.09 52.03 163.79 52.03 163.79 82.13 168.09 82.13 168.09 78.04 168.09 67.94" fill="#fff"/><rect x="172.17" y="78.04" width="9.25" height="4.08" fill="#fff"/><path d="M486.17,322.54a7.94,7.94,0,0,0,0-12.38,8.63,8.63,0,0,0-5.85-1.76H469.78v30.1h4.3v-26h6c1.93,0,2.92.43,3.61,1.12a3.95,3.95,0,0,1,0,5.5c-0.69.69-1.68,1.12-3.61,1.12h-1.93v4.94l10.06,13.33h5.2l-10.79-14.36A7.23,7.23,0,0,0,486.17,322.54Z" transform="translate(-279.46 -256.36)" fill="#fff"/><path d="M504.14,316.09c0-2.62,2.49-4,5-4a8.27,8.27,0,0,1,5.38,2.06L517,311a12.37,12.37,0,0,0-8.08-3c-5.25,0-9.12,3.61-9.12,8a7.66,7.66,0,0,0,3.83,6.62,18.34,18.34,0,0,0,2.69,1.4v-4.62C505,318.52,504.14,317.52,504.14,316.09Z" transform="translate(-279.46 -256.36)" fill="#fff"/><path d="M514.41,323.31a24.6,24.6,0,0,0-4-2v4.44c2,1,3.59,2.3,3.59,4.56,0,2.71-2.45,4.52-5.25,4.52a9.59,9.59,0,0,1-7.35-3.87l-3,2.92a13.5,13.5,0,0,0,10.53,5c5.25,0,9.33-3.44,9.33-8.73A8,8,0,0,0,514.41,323.31Z" transform="translate(-279.46 -256.36)" fill="#fff"/></svg>