<svg id="Layer_1" data-name="Layer 1" xmlns="http://www.w3.org/2000/svg" viewBox="0 0 327.24 82.56"><title>draw-of-illustrators</title><rect x="24.02" y="78.04" width="9.3" height="4.08" fill="#fff"/><polygon points="20 74.51 20 52.03 15.7 52.03 15.7 82.13 19.94 82.13 19.94 74.51 20 74.51" fill="#fff"/><rect x="49.78" y="78.04" width="9.3" height="4.08" fill="#fff"/><polygon points="45.76 74.51 45.76 52.03 41.46 52.03 41.46 82.13 45.7 82.13 45.7 74.51 45.76 74.51" fill="#fff"/><rect y="69.12" width="4.3" height="13.01" fill="#fff"/><rect y="52.03" width="4.3" height="13.01" fill="#fff"/><polygon points="42.36 7.53 45.22 14.42 49.66 14.42 43.86 0.43 40.85 0.43 35.06 14.42 39.49 14.42 42.36 7.53" fill="#fff"/><polygon points="32.85 30.53 35.99 22.79 48.68 22.79 51.86 30.53 56.33 30.53 51.43 18.7 47 18.7 37.71 18.7 33.28 18.7 28.38 30.53 32.85 30.53" fill="#fff"/><polygon points="159.85 7.53 162.72 14.42 167.15 14.42 161.36 0.43 158.35 0.43 152.55 14.42 156.99 14.42 159.85 7.53" fill="#fff"/><polygon points="150.35 30.53 153.49 22.79 166.18 22.79 169.36 30.53 173.83 30.53 168.93 18.7 164.5 18.7 155.21 18.7 150.78 18.7 145.88 30.53 150.35 30.53" fill="#fff"/><polygon points="197.45 59.13 200.31 66.02 204.75 66.02 198.96 52.03 195.94 52.03 190.15 66.02 194.59 66.02 197.45 59.13" fill="#fff"/><polygon points="187.95 82.13 191.09 74.39 203.77 74.39 206.95 82.13 211.42 82.13 206.53 70.31 202.09 70.31 192.81 70.31 188.37 70.31 183.47 82.13 187.95 82.13" fill="#fff"/><path d="M2078.72,334.83a9.59,9.59,0,0,1-7.35-3.87l-3,2.92a13.5,13.5,0,0,0,10.53,5c5.25,0,9.33-3.44,9.33-8.73a8,8,0,0,0-3.91-6.88,24.07,24.07,0,0,0-3.88-2v4.45c2,1,3.49,2.28,3.49,4.51C2084,333,2081.51,334.83,2078.72,334.83Z" transform="translate(-1969.45 -256.36)" fill="#fff"/><path d="M2074.07,316.09c0-2.62,2.49-4,5-4a8.27,8.27,0,0,1,5.38,2.06L2087,311a12.37,12.37,0,0,0-8.08-3c-5.25,0-9.12,3.61-9.12,8a7.66,7.66,0,0,0,3.83,6.62,18,18,0,0,0,2.59,1.36v-4.65A3.85,3.85,0,0,1,2074.07,316.09Z" transform="translate(-1969.45 -256.36)" fill="#fff"/><path d="M2287.14,334.83a9.59,9.59,0,0,1-7.35-3.87l-3,2.92a13.5,13.5,0,0,0,10.53,5c5.25,0,9.33-3.44,9.33-8.73a8,8,0,0,0-3.91-6.88,24.07,24.07,0,0,0-3.88-2v4.45c2,1,3.49,2.28,3.49,4.51C2292.38,333,2289.93,334.83,2287.14,334.83Z" transform="translate(-1969.45 -256.36)" fill="#fff"/><path d="M2282.49,316.09c0-2.62,2.49-4,5-4a8.27,8.27,0,0,1,5.38,2.06l2.54-3.14a12.37,12.37,0,0,0-8.08-3c-5.25,0-9.12,3.61-9.12,8a7.66,7.66,0,0,0,3.83,6.62,18,18,0,0,0,2.59,1.36v-4.65A3.85,3.85,0,0,1,2282.49,316.09Z" transform="translate(-1969.45 -256.36)" fill="#fff"/><rect x="287.45" y="0.43" width="8.61" height="4.08" fill="#fff"/><rect x="287.45" y="12.25" width="5.6" height="4.08" fill="#fff"/><polygon points="283.16 12.25 283.16 4.51 283.16 0.43 278.86 0.43 278.86 30.53 283.16 30.53 283.16 27.39 283.16 16.34 283.16 12.25" fill="#fff"/><path d="M2223.78,260.45a10.63,10.63,0,0,1,10.57,9.25h4.33a15,15,0,0,0-29.8,0h4.33A10.63,10.63,0,0,1,2223.78,260.45Z" transform="translate(-1969.45 -256.36)" fill="#fff"/><path d="M2238.68,274h-4.33a10.66,10.66,0,0,1-21.14,0h-4.33A15,15,0,0,0,2238.68,274Z" transform="translate(-1969.45 -256.36)" fill="#fff"/><path d="M2223.61,312a10.63,10.63,0,0,1,10.57,9.25h4.33a15,15,0,0,0-29.8,0H2213A10.63,10.63,0,0,1,2223.61,312Z" transform="translate(-1969.45 -256.36)" fill="#fff"/><path d="M2238.51,325.58h-4.33a10.66,10.66,0,0,1-21.14,0h-4.33A15,15,0,0,0,2238.51,325.58Z" transform="translate(-1969.45 -256.36)" fill="#fff"/><rect x="221.59" y="60.2" width="4.3" height="21.93" fill="#fff"/><polygon points="225.89 56.12 234.06 56.12 234.06 52.03 213.42 52.03 213.42 56.12 221.59 56.12 225.89 56.12" fill="#fff"/><rect x="133.32" y="60.2" width="4.3" height="21.93" fill="#fff"/><polygon points="137.62 56.12 145.78 56.12 145.78 52.03 125.15 52.03 125.15 56.12 133.31 56.12 137.62 56.12" fill="#fff"/><path d="M2102,270.94a7.94,7.94,0,0,0,0-12.38,8.63,8.63,0,0,0-5.85-1.76h-10.54v30.1h4.3v-26h6c1.93,0,2.92.43,3.61,1.12a3.95,3.95,0,0,1,0,5.5c-0.69.69-1.68,1.12-3.61,1.12H2094v4.94l10.06,13.34h5.2l-10.79-14.36A7.23,7.23,0,0,0,2102,270.94Z" transform="translate(-1969.45 -256.36)" fill="#fff"/><path d="M2139.64,322.54a7.94,7.94,0,0,0,0-12.38,8.63,8.63,0,0,0-5.85-1.76h-10.54v30.1h4.3v-26h6c1.93,0,2.92.43,3.61,1.12a3.95,3.95,0,0,1,0,5.5c-0.69.69-1.68,1.12-3.61,1.12h-1.94v4.94l10.06,13.34h5.2l-10.79-14.36A7.23,7.23,0,0,0,2139.64,322.54Z" transform="translate(-1969.45 -256.36)" fill="#fff"/><path d="M2264.52,322.54a7.94,7.94,0,0,0,0-12.38,8.63,8.63,0,0,0-5.85-1.76h-10.54v30.1h4.3v-26h6c1.93,0,2.92.43,3.61,1.12a3.95,3.95,0,0,1,0,5.5c-0.69.69-1.68,1.12-3.61,1.12h-1.94v4.94l10.06,13.34h5.2L2261,324.13A7.23,7.23,0,0,0,2264.52,322.54Z" transform="translate(-1969.45 -256.36)" fill="#fff"/><polygon points="187.43 22.23 194.78 0.43 187.42 22.21 187.43 22.23" fill="#fff"/><polygon points="180.67 0.43 176.29 0.43 183.12 22.17 185.36 15.55 180.67 0.43" fill="#fff"/><polygon points="205.14 22.23 197.79 0.43 194.78 0.43 187.43 22.23 187.42 22.21 185.2 28.78 185.75 30.53 188.76 30.53 196.28 8.26 203.81 30.53 206.82 30.53 216.28 0.43 211.89 0.43 205.14 22.23" fill="#fff"/><path d="M2070.28,259.63c-2.45-1.81-5.55-2.84-10.32-2.84h-0.38v4.08h0.17c4.21,0,6.71.9,8.6,2.54a11.55,11.55,0,0,1,0,16.86c-1.89,1.63-4.39,2.54-8.6,2.54h-0.17v4.08H2060c4.77,0,7.91-1,10.36-2.84A15.43,15.43,0,0,0,2070.28,259.63Z" transform="translate(-1969.45 -256.36)" fill="#fff"/><polygon points="85.79 4.51 85.79 0.43 81.49 0.43 81.49 30.53 85.79 30.53 85.79 26.44 85.79 4.51" fill="#fff"/><path d="M2041.5,332.17c-1.21-1.33-1.89-3.1-1.89-5.93V308.39h-4.3V326a12,12,0,0,0,10.32,12.71v-4.16A8,8,0,0,1,2041.5,332.17Z" transform="translate(-1969.45 -256.36)" fill="#fff"/><path d="M2055.94,308.39v17.84c0,2.84-.69,4.6-1.89,5.93a8,8,0,0,1-4.13,2.41v4.16A12,12,0,0,0,2060.24,326V308.39h-4.3Z" transform="translate(-1969.45 -256.36)" fill="#fff"/></svg>