<svg id="Layer_1" data-name="Layer 1" xmlns="http://www.w3.org/2000/svg" viewBox="0 0 406.48 82.71"><title>flash-of-photographers</title><polygon points="239.09 70.31 248.37 70.31 243.73 59.13 239.09 70.31" fill="none"/><path d="M1288.91,316.27a3.9,3.9,0,0,0-1.12-2.75c-0.69-.69-1.68-1.12-3.61-1.12h-6v7.74h6c1.93,0,2.92-.43,3.61-1.12A3.9,3.9,0,0,0,1288.91,316.27Z" transform="translate(-1073.77 -256.29)" fill="none"/><path d="M1446.75,316.27a3.9,3.9,0,0,0-1.12-2.75c-0.69-.69-1.68-1.12-3.61-1.12h-6v7.74h6c1.93,0,2.92-.43,3.61-1.12A3.9,3.9,0,0,0,1446.75,316.27Z" transform="translate(-1073.77 -256.29)" fill="none"/><path d="M1152.63,312c-6.15,0-10.75,4.9-10.75,11.39s4.6,11.4,10.75,11.4,10.75-4.86,10.75-11.4S1158.78,312,1152.63,312Z" transform="translate(-1073.77 -256.29)" fill="none"/><polygon points="78.82 7.53 81.69 14.42 86.12 14.42 80.33 0.43 77.32 0.43 71.52 14.42 75.96 14.42 78.82 7.53" fill="#fff"/><polygon points="69.32 30.53 72.46 22.79 85.14 22.79 88.33 30.53 92.8 30.53 87.9 18.7 83.47 18.7 74.18 18.7 69.75 18.7 64.85 30.53 69.32 30.53" fill="#fff"/><polygon points="243.84 59.26 246.7 66.15 251.14 66.15 245.34 52.16 242.34 52.16 236.54 66.15 240.98 66.15 243.84 59.26" fill="#fff"/><polygon points="234.34 82.26 237.48 74.52 250.16 74.52 253.34 82.26 257.81 82.26 252.92 70.44 248.48 70.44 239.2 70.44 234.76 70.44 229.87 82.26 234.34 82.26" fill="#fff"/><polygon points="181.28 7.53 184.14 14.42 188.58 14.42 182.78 0.43 179.77 0.43 173.98 14.42 178.41 14.42 181.28 7.53" fill="#fff"/><polygon points="171.77 30.53 174.91 22.79 187.6 22.79 190.78 30.53 195.25 30.53 190.35 18.7 185.92 18.7 176.63 18.7 172.2 18.7 167.3 30.53 171.77 30.53" fill="#fff"/><rect x="126.54" y="0.43" width="8.61" height="4.08" fill="#fff"/><rect x="126.54" y="12.25" width="5.6" height="4.08" fill="#fff"/><polygon points="122.25 12.25 122.25 4.51 122.25 0.43 117.95 0.43 117.95 30.53 122.25 30.53 122.25 27.39 122.25 16.34 122.25 12.25" fill="#fff"/><rect x="330.22" y="0.43" width="8.61" height="4.08" fill="#fff"/><rect x="330.22" y="12.25" width="5.6" height="4.08" fill="#fff"/><polygon points="325.94 12.25 325.94 4.51 325.94 0.43 321.64 0.43 321.64 30.53 325.94 30.53 325.94 27.39 325.94 16.34 325.94 12.25" fill="#fff"/><rect x="151.87" y="26.44" width="9.04" height="4.08" fill="#fff"/><polygon points="147.58 0.43 143.28 0.43 143.28 30.53 147.58 30.53 147.58 26.44 147.58 0.43" fill="#fff"/><path d="M1285.12,283.16a9.59,9.59,0,0,1-7.35-3.87l-3,2.92a13.5,13.5,0,0,0,10.53,5c5.25,0,9.33-3.44,9.33-8.73a8,8,0,0,0-3.91-6.88,24.07,24.07,0,0,0-3.88-2v4.45c2,1,3.49,2.28,3.49,4.51C1290.37,281.35,1287.92,283.16,1285.12,283.16Z" transform="translate(-1073.77 -256.29)" fill="#fff"/><path d="M1280.48,264.41c0-2.62,2.49-4,5-4a8.27,8.27,0,0,1,5.38,2.06l2.54-3.14a12.37,12.37,0,0,0-8.08-3c-5.25,0-9.12,3.61-9.12,8a7.66,7.66,0,0,0,3.83,6.62,18,18,0,0,0,2.59,1.36v-4.65A3.85,3.85,0,0,1,1280.48,264.41Z" transform="translate(-1073.77 -256.29)" fill="#fff"/><path d="M1470.7,334.76a9.59,9.59,0,0,1-7.35-3.87l-3,2.92a13.5,13.5,0,0,0,10.53,5c5.25,0,9.33-3.44,9.33-8.73a8,8,0,0,0-3.91-6.88,24.07,24.07,0,0,0-3.88-2v4.45c2,1,3.49,2.28,3.49,4.51C1475.94,333,1473.49,334.76,1470.7,334.76Z" transform="translate(-1073.77 -256.29)" fill="#fff"/><path d="M1466.06,316c0-2.62,2.49-4,5-4a8.27,8.27,0,0,1,5.38,2.06l2.54-3.14a12.37,12.37,0,0,0-8.08-3c-5.25,0-9.12,3.61-9.12,8a7.66,7.66,0,0,0,3.83,6.62,18,18,0,0,0,2.59,1.36v-4.65A3.85,3.85,0,0,1,1466.06,316Z" transform="translate(-1073.77 -256.29)" fill="#fff"/><polygon points="234.54 30.36 234.54 16.34 234.54 12.25 234.54 0.43 230.25 0.43 230.25 30.53 234.54 30.53 234.54 30.36" fill="#fff"/><polygon points="251.31 16.34 251.31 30.53 255.62 30.53 255.62 0.43 251.31 0.43 251.31 12.25 238.83 12.25 238.83 16.34 251.31 16.34" fill="#fff"/><polygon points="33.3 81.86 33.3 67.84 33.3 63.75 33.3 51.93 29 51.93 29 82.03 33.3 82.03 33.3 81.86" fill="#fff"/><polygon points="50.06 67.84 50.06 82.03 54.37 82.03 54.37 51.93 50.06 51.93 50.06 63.75 37.58 63.75 37.58 67.84 50.06 67.84" fill="#fff"/><path d="M1370.87,260.37a10.63,10.63,0,0,1,10.57,9.25h4.33a15,15,0,0,0-29.8,0h4.33A10.63,10.63,0,0,1,1370.87,260.37Z" transform="translate(-1073.77 -256.29)" fill="#fff"/><path d="M1385.77,273.91h-4.33a10.66,10.66,0,0,1-21.14,0H1356A15,15,0,0,0,1385.77,273.91Z" transform="translate(-1073.77 -256.29)" fill="#fff"/><path d="M1152.87,312.12a10.63,10.63,0,0,1,10.57,9.25h4.33a15,15,0,0,0-29.8,0h4.33A10.63,10.63,0,0,1,1152.87,312.12Z" transform="translate(-1073.77 -256.29)" fill="#fff"/><path d="M1167.77,325.66h-4.33a10.66,10.66,0,0,1-21.14,0H1138A15,15,0,0,0,1167.77,325.66Z" transform="translate(-1073.77 -256.29)" fill="#fff"/><path d="M1213.5,312a10.63,10.63,0,0,1,10.57,9.25h4.33a15,15,0,0,0-29.8,0h4.33A10.63,10.63,0,0,1,1213.5,312Z" transform="translate(-1073.77 -256.29)" fill="#fff"/><path d="M1228.4,325.51h-4.33a10.66,10.66,0,0,1-21.14,0h-4.33A15,15,0,0,0,1228.4,325.51Z" transform="translate(-1073.77 -256.29)" fill="#fff"/><polygon points="4.3 64.72 4.3 56.12 4.3 52.03 0 52.03 0 82.13 4.3 82.13 4.3 68.8 4.3 64.72" fill="#fff"/><path d="M1091.44,310.29a9.06,9.06,0,0,0-6.28-2h-2.81v4.08h2.59c2.06,0,3.18.52,4,1.33a4.26,4.26,0,0,1,0,5.93c-0.77.82-1.89,1.33-4,1.33h-2.59v4.08h2.81a9.06,9.06,0,0,0,6.28-2A8.4,8.4,0,0,0,1091.44,310.29Z" transform="translate(-1073.77 -256.29)" fill="#fff"/><polygon points="270.13 64.72 270.13 56.12 270.13 52.03 265.83 52.03 265.83 82.13 270.13 82.13 270.13 68.8 270.13 64.72" fill="#fff"/><path d="M1357.26,310.29a9.06,9.06,0,0,0-6.28-2h-2.81v4.08h2.59c2.06,0,3.18.52,4,1.33a4.26,4.26,0,0,1,0,5.93c-0.77.82-1.89,1.33-4,1.33h-2.59v4.08H1351a9.06,9.06,0,0,0,6.28-2A8.4,8.4,0,0,0,1357.26,310.29Z" transform="translate(-1073.77 -256.29)" fill="#fff"/><path d="M1258.91,332a10.48,10.48,0,0,1-7.4,2.79,11,11,0,0,1-11.31-11.4c0-6.49,4.77-11.39,10.92-11.39a11.42,11.42,0,0,1,8.13,3.4l2.88-2.84a15.27,15.27,0,0,0-26.23,10.84c0,8.9,6.62,15.48,15.61,15.48a15.3,15.3,0,0,0,11.7-5.59v-4.74h-4.3V332Z" transform="translate(-1073.77 -256.29)" fill="#fff"/><polygon points="189.45 67.94 189.45 63.85 176.55 63.85 176.55 67.94 185.15 67.94 189.45 67.94" fill="#fff"/><rect x="107.16" y="60.2" width="4.3" height="21.93" fill="#fff"/><polygon points="111.46 56.12 119.63 56.12 119.63 52.03 98.99 52.03 98.99 56.12 107.16 56.12 111.46 56.12" fill="#fff"/><path d="M1290.24,322.46a7.94,7.94,0,0,0,0-12.38,8.63,8.63,0,0,0-5.85-1.76h-10.54v30.1h4.3v-26h6c1.93,0,2.92.43,3.61,1.12a3.95,3.95,0,0,1,0,5.5c-0.69.69-1.68,1.12-3.61,1.12h-1.94v4.94l10.06,13.34h5.2l-10.79-14.36A7.23,7.23,0,0,0,1290.24,322.46Z" transform="translate(-1073.77 -256.29)" fill="#fff"/><path d="M1448.08,322.46a7.94,7.94,0,0,0,0-12.38,8.63,8.63,0,0,0-5.85-1.76H1431.7v30.1h4.3v-26h6c1.93,0,2.92.43,3.61,1.12a3.95,3.95,0,0,1,0,5.5c-0.69.69-1.68,1.12-3.61,1.12h-1.94v4.94l10.06,13.34h5.2l-10.79-14.36A7.23,7.23,0,0,0,1448.08,322.46Z" transform="translate(-1073.77 -256.29)" fill="#fff"/><polygon points="298.85 81.96 298.85 67.94 298.85 63.85 298.85 52.03 294.55 52.03 294.55 82.13 298.85 82.13 298.85 81.96" fill="#fff"/><polygon points="315.62 67.94 315.62 82.13 319.92 82.13 319.92 52.03 315.62 52.03 315.62 63.85 303.13 63.85 303.13 67.94 315.62 67.94" fill="#fff"/><rect x="339.78" y="63.85" width="5.8" height="4.08" fill="#fff"/><rect x="339.78" y="52.03" width="8.82" height="4.08" fill="#fff"/><polygon points="335.7 67.94 335.7 63.85 335.7 56.12 335.7 52.03 331.4 52.03 331.4 82.13 335.7 82.13 335.7 78.04 335.7 67.94" fill="#fff"/><rect x="339.78" y="78.04" width="9.25" height="4.08" fill="#fff"/></svg>