<svg id="Layer_1" data-name="Layer 1" xmlns="http://www.w3.org/2000/svg" viewBox="0 0 380.72 82.56"><title>hustle-of-entrpreneurs</title><rect x="223.86" y="26.44" width="9.3" height="4.08" fill="#fff"/><polygon points="219.83 22.91 219.83 0.43 215.53 0.43 215.53 30.53 219.77 30.53 219.77 22.91 219.83 22.91" fill="#fff"/><polygon points="51.91 7.53 54.77 14.42 59.21 14.42 53.42 0.43 50.41 0.43 44.61 14.42 49.05 14.42 51.91 7.53" fill="#fff"/><polygon points="42.41 30.53 45.55 22.79 58.23 22.79 61.41 30.53 65.89 30.53 60.99 18.7 56.56 18.7 47.27 18.7 42.84 18.7 37.94 30.53 42.41 30.53" fill="#fff"/><path d="M1257.63,892.68a9.59,9.59,0,0,1-7.35-3.87l-3,2.92a13.5,13.5,0,0,0,10.53,5c5.25,0,9.33-3.44,9.33-8.73a8,8,0,0,0-3.91-6.88,24.07,24.07,0,0,0-3.88-2v4.45c2,1,3.49,2.28,3.49,4.51C1262.88,890.88,1260.43,892.68,1257.63,892.68Z" transform="translate(-1086.65 -865.81)" fill="#fff"/><path d="M1253,873.94c0-2.62,2.49-4,5-4a8.27,8.27,0,0,1,5.38,2.06l2.54-3.14a12.37,12.37,0,0,0-8.08-3c-5.25,0-9.12,3.61-9.12,8a7.66,7.66,0,0,0,3.83,6.62,18,18,0,0,0,2.59,1.36v-4.65A3.85,3.85,0,0,1,1253,873.94Z" transform="translate(-1086.65 -865.81)" fill="#fff"/><path d="M1457.82,944.29a9.59,9.59,0,0,1-7.35-3.87l-3,2.92a13.5,13.5,0,0,0,10.53,5c5.25,0,9.33-3.44,9.33-8.73a8,8,0,0,0-3.91-6.88,24.07,24.07,0,0,0-3.88-2v4.45c2,1,3.49,2.28,3.49,4.51C1463.06,942.48,1460.61,944.29,1457.82,944.29Z" transform="translate(-1086.65 -865.81)" fill="#fff"/><path d="M1453.17,925.54c0-2.62,2.49-4,5-4a8.27,8.27,0,0,1,5.38,2.06l2.54-3.14a12.37,12.37,0,0,0-8.08-3c-5.25,0-9.12,3.61-9.12,8a7.66,7.66,0,0,0,3.83,6.62,18,18,0,0,0,2.59,1.36v-4.65A3.85,3.85,0,0,1,1453.17,925.54Z" transform="translate(-1086.65 -865.81)" fill="#fff"/><polygon points="95.34 30.36 95.34 16.34 95.34 12.25 95.34 0.43 91.04 0.43 91.04 30.53 95.34 30.53 95.34 30.36" fill="#fff"/><polygon points="112.11 16.34 112.11 30.53 116.41 30.53 116.41 0.43 112.11 0.43 112.11 12.25 99.63 12.25 99.63 16.34 112.11 16.34" fill="#fff"/><rect x="331.38" y="0.43" width="8.61" height="4.08" fill="#fff"/><rect x="331.38" y="12.25" width="5.6" height="4.08" fill="#fff"/><polygon points="327.09 12.25 327.09 4.51 327.09 0.43 322.79 0.43 322.79 30.53 327.09 30.53 327.09 27.39 327.09 16.34 327.09 12.25" fill="#fff"/><path d="M1384.91,869.9a10.63,10.63,0,0,1,10.57,9.25h4.33a15,15,0,0,0-29.8,0h4.33A10.63,10.63,0,0,1,1384.91,869.9Z" transform="translate(-1086.65 -865.81)" fill="#fff"/><path d="M1399.81,883.43h-4.33a10.66,10.66,0,0,1-21.14,0H1370A15,15,0,0,0,1399.81,883.43Z" transform="translate(-1086.65 -865.81)" fill="#fff"/><polygon points="150.86 64.72 150.86 56.12 150.86 52.03 146.56 52.03 146.56 82.13 150.86 82.13 150.86 68.8 150.86 64.72" fill="#fff"/><path d="M1250.88,919.82a9.06,9.06,0,0,0-6.28-2h-2.81v4.08h2.59c2.06,0,3.18.52,4,1.33a4.26,4.26,0,0,1,0,5.93c-0.77.82-1.89,1.33-4,1.33h-2.59v4.08h2.81a9.06,9.06,0,0,0,6.28-2A8.4,8.4,0,0,0,1250.88,919.82Z" transform="translate(-1086.65 -865.81)" fill="#fff"/><rect x="68.13" y="60.2" width="4.3" height="21.93" fill="#fff"/><polygon points="72.43 56.12 80.6 56.12 80.6 52.03 59.96 52.03 59.96 56.12 68.13 56.12 72.43 56.12" fill="#fff"/><rect x="195.03" y="8.6" width="4.3" height="21.93" fill="#fff"/><polygon points="199.33 4.51 207.5 4.51 207.5 0.43 186.86 0.43 186.86 4.51 195.03 4.51 199.33 4.51" fill="#fff"/><path d="M1191.66,932a7.94,7.94,0,0,0,0-12.38,8.63,8.63,0,0,0-5.85-1.76h-10.54v30.1h4.3v-26h6c1.93,0,2.92.43,3.61,1.12a3.95,3.95,0,0,1,0,5.5c-0.69.69-1.68,1.12-3.61,1.12h-1.94v4.94l10.06,13.34h5.2l-10.79-14.36A7.23,7.23,0,0,0,1191.66,932Z" transform="translate(-1086.65 -865.81)" fill="#fff"/><path d="M1278.58,932a7.94,7.94,0,0,0,0-12.38,8.63,8.63,0,0,0-5.85-1.76H1262.2v30.1h4.3v-26h6c1.93,0,2.92.43,3.61,1.12a3.95,3.95,0,0,1,0,5.5c-0.69.69-1.68,1.12-3.61,1.12h-1.94v4.94l10.06,13.34h5.2l-10.79-14.36A7.23,7.23,0,0,0,1278.58,932Z" transform="translate(-1086.65 -865.81)" fill="#fff"/><path d="M1435.2,932a7.94,7.94,0,0,0,0-12.38,8.63,8.63,0,0,0-5.85-1.76h-10.54v30.1h4.3v-26h6c1.93,0,2.92.43,3.61,1.12a3.95,3.95,0,0,1,0,5.5c-0.69.69-1.68,1.12-3.61,1.12h-1.94v4.94l10.06,13.34h5.2l-10.79-14.36A7.23,7.23,0,0,0,1435.2,932Z" transform="translate(-1086.65 -865.81)" fill="#fff"/><rect x="128.41" y="63.86" width="5.8" height="4.08" fill="#fff"/><rect x="128.41" y="52.03" width="8.82" height="4.08" fill="#fff"/><polygon points="124.32 67.94 124.32 63.85 124.32 56.12 124.32 52.03 120.02 52.03 120.02 82.13 124.32 82.13 124.32 78.05 124.32 67.94" fill="#fff"/><rect x="128.41" y="78.04" width="9.25" height="4.08" fill="#fff"/><rect x="278.72" y="63.86" width="5.8" height="4.08" fill="#fff"/><rect x="278.72" y="52.03" width="8.82" height="4.08" fill="#fff"/><polygon points="274.64 67.94 274.64 63.85 274.64 56.12 274.64 52.03 270.34 52.03 270.34 82.13 274.64 82.13 274.64 78.05 274.64 67.94" fill="#fff"/><rect x="278.72" y="78.04" width="9.25" height="4.08" fill="#fff"/><rect x="8.38" y="63.86" width="5.8" height="4.08" fill="#fff"/><rect x="8.38" y="52.03" width="8.82" height="4.08" fill="#fff"/><polygon points="4.3 67.94 4.3 63.85 4.3 56.12 4.3 52.03 0 52.03 0 82.13 4.3 82.13 4.3 78.05 4.3 67.94" fill="#fff"/><rect x="8.38" y="78.04" width="9.25" height="4.08" fill="#fff"/><rect x="215.33" y="63.86" width="5.8" height="4.08" fill="#fff"/><rect x="215.33" y="52.03" width="8.82" height="4.08" fill="#fff"/><polygon points="211.25 67.94 211.25 63.85 211.25 56.12 211.25 52.03 206.95 52.03 206.95 82.13 211.25 82.13 211.25 78.05 211.25 67.94" fill="#fff"/><rect x="215.33" y="78.04" width="9.25" height="4.08" fill="#fff"/><rect x="249.67" y="12.25" width="5.8" height="4.08" fill="#fff"/><rect x="249.67" y="0.43" width="8.82" height="4.08" fill="#fff"/><polygon points="245.59 16.34 245.59 12.26 245.59 4.51 245.59 0.43 241.29 0.43 241.29 30.53 245.59 30.53 245.59 26.44 245.59 16.34" fill="#fff"/><rect x="249.67" y="26.44" width="9.25" height="4.08" fill="#fff"/><path d="M1220.41,890c-1.21-1.33-1.89-3.1-1.89-5.93V866.24h-4.3v17.63a12,12,0,0,0,10.32,12.71v-4.16A8,8,0,0,1,1220.41,890Z" transform="translate(-1086.65 -865.81)" fill="#fff"/><path d="M1234.86,866.24v17.84c0,2.84-.69,4.6-1.89,5.93a8,8,0,0,1-4.13,2.41v4.16a12,12,0,0,0,10.32-12.71V866.24h-4.3Z" transform="translate(-1086.65 -865.81)" fill="#fff"/><path d="M1388.91,941.62c-1.21-1.33-1.89-3.1-1.89-5.93V917.84h-4.3v17.63A12,12,0,0,0,1393,948.18V944A8,8,0,0,1,1388.91,941.62Z" transform="translate(-1086.65 -865.81)" fill="#fff"/><path d="M1403.36,917.84v17.84c0,2.84-.69,4.6-1.89,5.93a8,8,0,0,1-4.13,2.41v4.16a12,12,0,0,0,10.32-12.71V917.84h-4.3Z" transform="translate(-1086.65 -865.81)" fill="#fff"/><polygon points="29.55 52.03 26.54 52.03 26.54 82.13 30.84 82.13 30.84 60.03 30.88 60.08 30.88 53.66 29.55 52.03" fill="#fff"/><polygon points="47.61 52.03 47.61 74.13 35.22 58.97 35.22 65.39 48.9 82.13 51.91 82.13 51.91 52.03 47.61 52.03" fill="#fff"/><polygon points="236.5 52.03 233.49 52.03 233.49 82.13 237.79 82.13 237.79 60.03 237.83 60.08 237.83 53.66 236.5 52.03" fill="#fff"/><polygon points="254.56 52.03 254.56 74.13 242.17 58.97 242.17 65.39 255.85 82.13 258.86 82.13 258.86 52.03 254.56 52.03" fill="#fff"/></svg>