<svg id="Layer_1" data-name="Layer 1" xmlns="http://www.w3.org/2000/svg" viewBox="0 0 389.17 82.56"><title>justification-of-designers</title><path d="M460.64,869.9a11.42,11.42,0,0,1,8.13,3.4l2.88-2.84a15.24,15.24,0,0,0-26,8.25H450A10.8,10.8,0,0,1,460.64,869.9Z" transform="translate(-226.36 -865.81)" fill="#fff"/><path d="M472.73,891.18l-3.05-2.75a11.27,11.27,0,0,1-8.64,4.26,10.88,10.88,0,0,1-11.22-9.9h-4.32c0.7,8.13,7.07,14,15.54,14A15.17,15.17,0,0,0,472.73,891.18Z" transform="translate(-226.36 -865.81)" fill="#fff"/><rect x="188.45" y="0.43" width="8.81" height="4.08" fill="#fff"/><polygon points="184.37 12.25 184.37 4.51 184.37 0.43 180.07 0.43 180.07 30.53 184.37 30.53 184.37 16.34 184.37 12.25" fill="#fff"/><rect x="188.45" y="12.25" width="5.8" height="4.08" fill="#fff"/><rect x="164.37" y="17.52" width="4.3" height="13.01" fill="#fff"/><rect x="164.37" y="0.43" width="4.3" height="13.01" fill="#fff"/><rect x="310.47" y="17.52" width="4.3" height="13.01" fill="#fff"/><rect x="310.47" y="0.43" width="4.3" height="13.01" fill="#fff"/><rect x="205.4" y="17.52" width="4.3" height="13.01" fill="#fff"/><rect x="205.4" y="0.43" width="4.3" height="13.01" fill="#fff"/><rect x="200.3" y="69.12" width="4.3" height="13.01" fill="#fff"/><rect x="200.3" y="52.03" width="4.3" height="13.01" fill="#fff"/><polygon points="13.97 7.53 16.84 14.42 21.27 14.42 15.48 0.43 12.47 0.43 6.68 14.42 11.11 14.42 13.97 7.53" fill="#fff"/><polygon points="4.47 30.53 7.61 22.79 20.3 22.79 23.48 30.53 27.95 30.53 23.05 18.7 18.62 18.7 9.33 18.7 4.9 18.7 0 30.53 4.47 30.53" fill="#fff"/><polygon points="265.83 7.53 268.69 14.42 273.13 14.42 267.34 0.43 264.33 0.43 258.53 14.42 262.97 14.42 265.83 7.53" fill="#fff"/><polygon points="256.33 30.53 259.47 22.79 272.15 22.79 275.33 30.53 279.81 30.53 274.91 18.7 270.48 18.7 261.19 18.7 256.75 18.7 251.86 30.53 256.33 30.53" fill="#fff"/><path d="M580.66,944.29a9.59,9.59,0,0,1-7.35-3.87l-3,2.92a13.5,13.5,0,0,0,10.53,5c5.25,0,9.33-3.44,9.33-8.73a8,8,0,0,0-3.91-6.88,24.07,24.07,0,0,0-3.88-2v4.45c2,1,3.49,2.28,3.49,4.51C585.91,942.48,583.46,944.29,580.66,944.29Z" transform="translate(-226.36 -865.81)" fill="#fff"/><path d="M576,925.54c0-2.62,2.49-4,5-4a8.27,8.27,0,0,1,5.38,2.06l2.54-3.14a12.37,12.37,0,0,0-8.08-3c-5.25,0-9.12,3.61-9.12,8a7.66,7.66,0,0,0,3.83,6.62,18,18,0,0,0,2.59,1.36v-4.65A3.85,3.85,0,0,1,576,925.54Z" transform="translate(-226.36 -865.81)" fill="#fff"/><path d="M407.69,944.29a9.59,9.59,0,0,1-7.35-3.87l-3,2.92a13.5,13.5,0,0,0,10.53,5c5.25,0,9.33-3.44,9.33-8.73a8,8,0,0,0-3.91-6.88,24.07,24.07,0,0,0-3.88-2v4.45c2,1,3.49,2.28,3.49,4.51C412.94,942.48,410.49,944.29,407.69,944.29Z" transform="translate(-226.36 -865.81)" fill="#fff"/><path d="M403.05,925.54c0-2.62,2.49-4,5-4a8.27,8.27,0,0,1,5.38,2.06l2.54-3.14a12.37,12.37,0,0,0-8.08-3c-5.25,0-9.12,3.61-9.12,8a7.66,7.66,0,0,0,3.83,6.62,18,18,0,0,0,2.59,1.36v-4.65A3.85,3.85,0,0,1,403.05,925.54Z" transform="translate(-226.36 -865.81)" fill="#fff"/><path d="M346.19,892.68a9.59,9.59,0,0,1-7.35-3.87l-3,2.92a13.5,13.5,0,0,0,10.53,5c5.25,0,9.33-3.44,9.33-8.73a8,8,0,0,0-3.91-6.88,24.07,24.07,0,0,0-3.88-2v4.45c2,1,3.49,2.28,3.49,4.51C351.44,890.88,349,892.68,346.19,892.68Z" transform="translate(-226.36 -865.81)" fill="#fff"/><path d="M341.55,873.94c0-2.62,2.49-4,5-4a8.27,8.27,0,0,1,5.38,2.06l2.54-3.14a12.37,12.37,0,0,0-8.08-3c-5.25,0-9.12,3.61-9.12,8a7.66,7.66,0,0,0,3.83,6.62,18,18,0,0,0,2.59,1.36v-4.65A3.85,3.85,0,0,1,341.55,873.94Z" transform="translate(-226.36 -865.81)" fill="#fff"/><path d="M565.63,869.9a10.63,10.63,0,0,1,10.57,9.25h4.33a15,15,0,0,0-29.8,0h4.33A10.63,10.63,0,0,1,565.63,869.9Z" transform="translate(-226.36 -865.81)" fill="#fff"/><path d="M580.53,883.43H576.2a10.66,10.66,0,0,1-21.14,0h-4.33A15,15,0,0,0,580.53,883.43Z" transform="translate(-226.36 -865.81)" fill="#fff"/><path d="M463.33,941.49a10.48,10.48,0,0,1-7.4,2.79,11,11,0,0,1-11.31-11.4c0-6.49,4.77-11.39,10.92-11.39a11.42,11.42,0,0,1,8.13,3.4l2.88-2.84a15.27,15.27,0,0,0-26.23,10.84c0,8.9,6.62,15.48,15.61,15.48a15.3,15.3,0,0,0,11.7-5.59V938h-4.3v3.45Z" transform="translate(-226.36 -865.81)" fill="#fff"/><polygon points="241.27 67.94 241.27 63.85 228.37 63.85 228.37 67.94 236.97 67.94 241.27 67.94" fill="#fff"/><rect x="289.98" y="8.6" width="4.3" height="21.93" fill="#fff"/><polygon points="294.27 4.51 302.44 4.51 302.44 0.43 281.81 0.43 281.81 4.51 289.98 4.51 294.27 4.51" fill="#fff"/><rect x="143.88" y="8.6" width="4.3" height="21.93" fill="#fff"/><polygon points="148.18 4.51 156.35 4.51 156.35 0.43 135.71 0.43 135.71 4.51 143.88 4.51 148.18 4.51" fill="#fff"/><path d="M558,932a7.94,7.94,0,0,0,0-12.38,8.63,8.63,0,0,0-5.85-1.76H541.66v30.1H546v-26h6c1.93,0,2.92.43,3.61,1.12a3.95,3.95,0,0,1,0,5.5c-0.69.69-1.68,1.12-3.61,1.12H550v4.94l10.06,13.34h5.2l-10.79-14.36A7.23,7.23,0,0,0,558,932Z" transform="translate(-226.36 -865.81)" fill="#fff"/><rect x="154.45" y="63.86" width="5.8" height="4.08" fill="#fff"/><rect x="154.45" y="52.03" width="8.82" height="4.08" fill="#fff"/><polygon points="150.37 67.94 150.37 63.85 150.37 56.12 150.37 52.03 146.07 52.03 146.07 82.13 150.37 82.13 150.37 78.05 150.37 67.94" fill="#fff"/><rect x="154.45" y="78.04" width="9.25" height="4.08" fill="#fff"/><rect x="297.15" y="63.86" width="5.8" height="4.08" fill="#fff"/><rect x="297.15" y="52.03" width="8.82" height="4.08" fill="#fff"/><polygon points="293.06 67.94 293.06 63.85 293.06 56.12 293.06 52.03 288.76 52.03 288.76 82.13 293.06 82.13 293.06 78.05 293.06 67.94" fill="#fff"/><rect x="297.15" y="78.04" width="9.25" height="4.08" fill="#fff"/><path d="M357,920.68c-2.45-1.81-5.55-2.84-10.32-2.84h-0.38v4.08h0.17c4.21,0,6.71.9,8.6,2.54a11.55,11.55,0,0,1,0,16.86c-1.89,1.63-4.39,2.54-8.6,2.54h-0.17v4.08h0.38c4.77,0,7.91-1,10.36-2.84A15.43,15.43,0,0,0,357,920.68Z" transform="translate(-226.36 -865.81)" fill="#fff"/><polygon points="115.64 56.12 115.64 52.03 111.34 52.03 111.34 82.13 115.64 82.13 115.64 78.05 115.64 56.12" fill="#fff"/><path d="M309,890c-1.21-1.33-1.89-3.1-1.89-5.93V866.24h-4.3v17.63a12,12,0,0,0,10.32,12.71v-4.16A8,8,0,0,1,309,890Z" transform="translate(-226.36 -865.81)" fill="#fff"/><path d="M323.42,866.24v17.84c0,2.84-.69,4.6-1.89,5.93a8,8,0,0,1-4.13,2.41v4.16a12,12,0,0,0,10.32-12.71V866.24h-4.3Z" transform="translate(-226.36 -865.81)" fill="#fff"/><path d="M279.42,890.28l-3.83,1.63a8,8,0,0,0,6,4.67v-4.25A4.13,4.13,0,0,1,279.42,890.28Z" transform="translate(-226.36 -865.81)" fill="#fff"/><path d="M287.64,866.24v21.37a5.26,5.26,0,0,1-.82,3.4,3.93,3.93,0,0,1-.9.86v4.52a8.63,8.63,0,0,0,5-4,10.12,10.12,0,0,0,1-5.12V866.24h-4.3Z" transform="translate(-226.36 -865.81)" fill="#fff"/><polygon points="366.81 0.43 363.8 0.43 363.8 30.53 368.1 30.53 368.1 8.43 368.14 8.48 368.14 2.06 366.81 0.43" fill="#fff"/><polygon points="384.87 0.43 384.87 22.53 372.48 7.37 372.48 13.79 386.16 30.53 389.17 30.53 389.17 0.43 384.87 0.43" fill="#fff"/><polygon points="254.92 52.03 251.91 52.03 251.91 82.13 256.21 82.13 256.21 60.03 256.25 60.08 256.25 53.66 254.92 52.03" fill="#fff"/><polygon points="272.98 52.03 272.98 74.13 260.6 58.97 260.6 65.39 274.27 82.13 277.28 82.13 277.28 52.03 272.98 52.03" fill="#fff"/><rect x="76.93" y="52.03" width="8.61" height="4.08" fill="#fff"/><rect x="76.93" y="63.85" width="5.6" height="4.08" fill="#fff"/><polygon points="72.64 63.85 72.64 56.12 72.64 52.03 68.34 52.03 68.34 82.13 72.64 82.13 72.64 78.99 72.64 67.94 72.64 63.85" fill="#fff"/><path d="M270.17,921.5a10.63,10.63,0,0,1,10.57,9.25h4.33a15,15,0,0,0-29.8,0h4.33A10.63,10.63,0,0,1,270.17,921.5Z" transform="translate(-226.36 -865.81)" fill="#fff"/><path d="M285.07,935h-4.33a10.66,10.66,0,0,1-21.14,0h-4.33A15,15,0,0,0,285.07,935Z" transform="translate(-226.36 -865.81)" fill="#fff"/></svg>